<svg width="1187" height="339" viewBox="0 0 1187 339" fill="none" xmlns="http://www.w3.org/2000/svg">
<path d="M20.9673 339C20.9673 339 20.5346 338.711 19.6692 338.134C18.8037 337.846 17.6498 337.557 16.2074 337.268C15.0535 336.98 13.6111 336.836 11.8802 336.836C7.26448 335.681 3.94695 333.084 1.92758 329.044C-0.0917897 325.292 -0.524511 321.107 0.629413 316.49C1.78334 315.335 2.64878 312.882 3.22574 309.131C3.80271 305.379 4.09119 302.349 4.09119 300.04C5.24511 297.731 5.96631 296.144 6.25479 295.278C6.54327 294.124 7.26448 291.238 8.4184 286.62C9.28385 281.714 10.7263 274.932 12.7456 266.275C15.0535 257.328 17.5056 247.805 20.1019 237.704C22.9867 227.603 25.7273 217.935 28.3236 208.7C30.9199 199.466 33.2278 191.674 35.2471 185.324C37.555 178.975 39.1416 175.368 40.0071 174.502C40.0071 174.502 40.0071 174.069 40.0071 173.204C40.0071 172.049 40.0071 170.895 40.0071 169.741C40.0071 169.741 40.1513 168.442 40.4398 165.845C41.0168 162.959 42.4592 159.784 44.767 156.321C45.9209 153.146 46.9306 149.683 47.7961 145.932C48.6615 142.18 49.0942 139.727 49.0942 138.573C50.2482 137.13 51.8348 133.666 53.8542 128.183C56.162 122.411 58.3256 116.784 60.345 111.301C62.0759 106.683 63.951 101.777 65.9704 96.5823C68.2782 91.3876 70.1534 86.9144 71.5958 83.1627C73.3267 79.411 74.1921 77.5352 74.1921 77.5352C74.1921 76.3808 74.1921 75.8036 74.1921 75.8036C74.1921 75.515 74.1921 75.3708 74.1921 75.3708C75.346 74.2164 78.0866 68.4445 82.4138 58.0552C87.0295 47.3773 93.2318 33.6691 101.021 16.9308C102.175 14.622 103.617 12.0247 105.348 9.13877C107.079 6.25285 107.944 4.2327 107.944 3.07833C109.387 0.769587 111.406 -0.240491 114.002 0.0480975C116.599 0.0480975 119.195 0.913881 121.791 2.64545C124.676 4.377 126.84 6.83003 128.282 10.0045L132.61 16.9308L117.032 48.0987C112.416 56.1793 108.521 63.5384 105.348 70.1761C102.463 76.8137 101.021 80.7097 101.021 81.8641C101.021 81.8641 100.155 84.1728 98.4245 88.7903C96.6936 93.4078 94.6742 98.891 92.3664 105.24C90.0585 111.589 88.0392 117.361 86.3083 122.556C83.135 131.502 80.106 138.861 77.2211 144.633C74.6248 150.405 73.3266 153.868 73.3266 155.022C73.3266 154.445 76.4999 154.012 82.8465 153.724C89.1931 153.435 97.2706 153.291 107.079 153.291C116.887 153.291 126.84 153.291 136.937 153.291C147.322 153.002 156.409 152.858 164.198 152.858C172.276 152.569 177.757 152.136 180.642 151.559L203.143 149.395L217.856 104.807C220.164 96.7266 223.193 86.9144 226.943 75.3708C230.693 63.827 234.011 54.0149 236.895 45.9343C241.511 32.6591 245.117 24.4342 247.713 21.2597C250.31 18.0851 253.339 16.4979 256.801 16.4979C257.666 16.4979 258.82 16.7865 260.262 17.3637C261.993 17.6522 263.58 18.3737 265.022 19.5281C266.753 20.3939 267.907 21.6925 268.484 23.4241C271.946 26.5986 273.533 30.206 273.244 34.2463C273.244 38.2866 270.936 43.6256 266.32 50.2632C261.705 58.0552 257.81 66.5687 254.637 75.8036C251.752 84.75 249.156 92.1091 246.848 97.881C246.848 101.344 246.415 104.23 245.55 106.539C244.684 108.559 243.675 110.146 242.521 111.301C241.944 111.878 240.79 114.042 239.059 117.794C237.328 121.546 235.741 125.297 234.299 129.049C232.857 132.801 232.135 135.109 232.135 135.975C232.135 137.995 231.703 140.448 230.837 143.334C229.972 146.22 228.962 148.24 227.808 149.395C227.231 151.126 225.933 155.455 223.914 162.381C221.894 169.308 219.587 177.533 216.99 187.056C214.394 196.291 211.653 205.382 208.769 214.328C205.884 222.986 203.287 230.201 200.98 235.972C200.98 237.993 200.258 240.59 198.816 243.764C197.374 246.65 196.652 249.248 196.652 251.556C195.498 255.02 194.056 259.348 192.325 264.543C190.594 269.738 189.729 273.057 189.729 274.5C188.286 281.137 186.7 287.919 184.969 294.845C183.526 301.772 182.228 307.688 181.074 312.594C180.209 317.788 179.776 320.819 179.776 321.684C178.622 322.839 176.891 322.983 174.584 322.117C172.276 321.252 169.535 320.242 166.362 319.087C160.881 315.913 157.563 312.45 156.409 308.698C155.544 305.235 156.698 300.184 159.871 293.547C161.313 291.238 163.044 285.61 165.064 276.664C167.371 267.429 169.679 258.338 171.987 249.392C173.718 245.063 175.593 239.291 177.613 232.076C179.632 224.573 181.651 217.07 183.671 209.566C185.69 201.774 187.421 195.281 188.863 190.086C190.306 184.603 191.315 181.573 191.892 180.996C191.892 179.841 191.892 178.831 191.892 177.965C191.892 177.1 191.892 176.667 191.892 176.667C191.315 176.09 187.709 175.657 181.074 175.368C174.439 174.791 166.218 174.647 156.409 174.935C146.601 174.935 136.36 175.224 125.686 175.801C115.301 176.09 105.925 176.811 97.5591 177.965C94.3858 177.965 90.7797 177.965 86.741 177.965C82.7023 177.965 79.529 177.965 77.2211 177.965C74.0479 177.965 71.3073 177.965 68.9994 177.965C66.9801 177.965 65.9704 177.965 65.9704 177.965C65.6819 178.831 64.6722 181.861 62.9413 187.056C61.2104 192.251 59.1911 198.6 56.8832 206.103C54.5754 213.318 52.1233 220.821 49.527 228.613C47.2191 236.117 45.1997 243.043 43.4689 249.392C42.0265 255.453 41.0168 259.781 40.4398 262.379C39.2859 267.573 37.6992 274.067 35.6799 281.859C33.949 289.651 31.9296 297.587 29.6218 305.668C27.6024 314.037 25.7273 321.252 23.9964 327.312C22.554 333.372 21.5443 337.268 20.9673 339Z" fill="black"/>
<path d="M281.672 296.577C277.922 296.577 274.893 295.855 272.585 294.412C270.565 292.97 267.969 290.949 264.796 288.352C259.315 282.58 255.42 277.097 253.112 271.902C250.805 266.419 250.083 261.224 250.949 256.318C251.814 254.01 252.103 251.845 251.814 249.825C251.814 247.516 251.814 246.362 251.814 246.362C250.372 244.919 249.939 244.053 250.516 243.764C251.093 243.187 251.67 242.322 252.247 241.167C253.978 241.167 254.555 239.58 253.978 236.405C253.401 234.097 254.555 229.046 257.44 221.254C260.324 213.462 263.93 206.103 268.258 199.177C269.988 196.291 272.585 192.539 276.047 187.922C279.508 183.016 283.259 178.254 287.297 173.637C291.625 168.73 295.519 164.834 298.981 161.949C306.193 155.888 312.539 151.415 318.021 148.529C323.502 145.643 329.416 143.479 335.762 142.036C342.109 140.593 346.436 139.871 348.744 139.871C351.34 139.871 354.802 142.18 359.129 146.797C365.764 149.683 370.524 153.146 373.409 157.187C376.582 161.227 378.602 167.143 379.467 174.935C380.332 183.593 379.611 193.549 377.303 204.805C375.284 215.771 368.505 229.479 356.966 245.929C349.753 256.318 343.118 264.11 337.06 269.305C331.002 274.211 323.79 279.117 315.424 284.023C309.366 288.063 303.885 291.094 298.981 293.114C294.077 294.845 288.307 296 281.672 296.577ZM323.213 250.691C330.137 242.899 335.618 235.54 339.657 228.613C343.984 221.687 348.023 212.885 351.773 202.207C352.927 199.033 353.648 195.137 353.937 190.519C354.225 185.613 354.081 181.14 353.504 177.1C353.215 172.771 352.206 170.318 350.475 169.741C347.013 167.72 342.83 167.143 337.926 168.009C333.022 168.586 327.685 171.328 321.915 176.234C312.972 183.737 305.183 193.116 298.548 204.372C291.913 215.338 285.422 227.892 279.076 242.033C274.748 252.422 273.739 260.791 276.047 267.14C278.643 273.201 283.98 275.365 292.057 273.634C300.423 271.614 310.809 263.966 323.213 250.691Z" fill="black"/>
<path d="M417.347 303.07C411.866 304.513 407.394 303.359 403.933 299.607C400.759 295.855 398.884 290.084 398.307 282.292C397.73 274.5 398.596 265.265 400.904 254.587C402.346 251.124 403.5 247.805 404.365 244.63C405.231 241.167 405.664 238.426 405.664 236.405C406.241 233.519 407.394 229.335 409.125 223.852C410.856 218.08 412.731 212.164 414.751 206.103C416.77 200.043 418.645 194.704 420.376 190.086C422.396 185.18 423.694 182.15 424.271 180.996C425.425 180.996 426.434 179.986 427.3 177.965C428.165 175.945 428.598 173.925 428.598 171.905C428.598 169.596 429.031 166.999 429.896 164.113C431.05 161.227 432.204 159.207 433.358 158.053C433.358 156.61 433.646 155.022 434.223 153.291C435.089 151.271 435.521 149.683 435.521 148.529C435.521 147.375 435.81 146.22 436.387 145.066C437.252 143.911 437.685 142.757 437.685 141.603C439.704 137.851 442.301 131.935 445.474 123.854C448.936 115.485 452.542 106.25 456.292 96.1494C460.331 86.0487 464.081 76.0922 467.543 66.2801C471.005 56.4679 473.745 48.2431 475.764 41.6054C478.072 34.6792 479.226 30.4946 479.226 29.0517C479.226 26.7429 479.803 25.0114 480.957 23.857C482.111 22.7026 483.842 22.1254 486.15 22.1254C487.015 21.2597 488.025 20.6825 489.179 20.3939C490.621 20.1053 491.919 19.961 493.073 19.961C493.073 19.961 493.65 20.5382 494.804 21.6925C495.958 22.8469 497.689 24.5785 499.997 26.8872C502.305 28.9074 503.603 31.2161 503.891 33.8134C504.468 36.4108 504.757 39.441 504.757 42.9041C504.757 46.6558 504.324 49.9746 503.459 52.8605C502.593 55.7465 500.862 59.9311 498.266 65.4143C495.67 70.8976 491.631 79.411 486.15 90.9547C483.842 96.7266 481.39 102.21 478.794 107.405C476.197 112.311 474.899 115.341 474.899 116.495C474.899 117.65 474.322 119.381 473.168 121.69C472.303 123.999 471.293 126.885 470.139 130.348C468.985 132.656 467.399 136.119 465.379 140.737C463.36 145.066 461.196 149.828 458.888 155.022C456.869 159.928 455.138 164.257 453.696 168.009C452.253 171.472 451.532 173.492 451.532 174.069C451.532 175.224 451.388 176.378 451.099 177.533C451.099 178.687 450.522 179.841 449.369 180.996C448.215 180.996 447.493 181.861 447.205 183.593C447.205 185.036 447.205 185.757 447.205 185.757C447.205 188.643 444.897 196.291 440.281 208.7C435.666 224.573 431.338 239.147 427.3 252.422C423.549 265.698 421.674 276.375 421.674 284.456C421.674 291.382 421.53 296 421.242 298.308C420.953 300.329 419.655 301.916 417.347 303.07Z" fill="black"/>
<path d="M499.108 289.651C494.781 289.074 491.03 286.043 487.857 280.56C484.972 274.788 483.241 269.594 482.664 264.976C482.953 262.667 483.241 259.348 483.53 255.02C484.107 250.691 484.684 246.218 485.261 241.6C486.415 236.117 488.001 229.479 490.021 221.687C492.04 213.607 494.059 205.526 496.079 197.445C498.387 189.365 500.406 182.439 502.137 176.667C503.868 170.895 505.022 167.432 505.599 166.277C507.041 163.969 509.349 163.391 512.522 164.546C515.695 165.7 518.292 167.432 520.311 169.741C522.042 172.049 523.052 174.791 523.34 177.965C523.917 181.14 523.484 185.757 522.042 191.818C520.888 197.878 518.58 206.825 515.119 218.657C511.945 230.201 509.493 239.58 507.762 246.795C506.32 253.721 505.743 261.08 506.031 268.872C504.877 278.684 504.012 284.745 503.435 287.053C502.858 289.074 501.416 289.939 499.108 289.651ZM548.871 116.928C547.717 117.794 546.563 118.227 545.409 118.227C544.544 117.938 542.957 117.072 540.649 115.629C538.63 115.341 536.033 114.042 532.86 111.733C529.975 109.136 527.379 106.539 525.071 103.941C523.052 101.055 522.042 99.3239 522.042 98.7467C521.754 95.8608 521.898 92.2534 522.475 87.9245C523.34 83.307 524.927 79.2668 527.235 75.8036C529.543 72.0519 532.86 70.0318 537.187 69.7432C538.341 69.7432 539.351 69.8875 540.216 70.1761C541.082 70.4647 543.678 71.4748 548.005 73.2063C550.313 77.5352 552.621 82.4413 554.929 87.9245C557.237 93.1192 558.246 98.3139 557.958 103.509C557.669 108.415 554.64 112.888 548.871 116.928Z" fill="black"/>
<path d="M668.961 298.741C667.807 298.741 666.076 298.597 663.769 298.308C661.749 297.731 660.018 296.433 658.576 294.412C654.249 289.218 651.508 284.889 650.354 281.426C649.2 277.963 649.056 272.912 649.921 266.275C650.498 261.946 650.787 258.194 650.787 255.02C651.075 251.556 651.364 248.671 651.652 246.362C650.498 245.207 648.335 246.073 645.162 248.959C642.277 251.556 638.238 254.875 633.045 258.916C623.237 270.171 614.438 278.828 606.649 284.889C599.149 290.661 592.369 294.557 586.311 296.577C580.253 298.308 574.484 298.886 569.002 298.308C564.098 297.731 560.204 295.711 557.319 292.248C554.434 288.496 552.559 283.735 551.694 277.963C551.117 272.191 551.117 265.986 551.694 259.348C552.848 249.825 554.867 240.734 557.752 232.076C560.925 223.419 565.973 213.751 572.897 203.073C576.07 197.301 580.253 191.674 585.446 186.19C590.927 180.418 596.841 175.368 603.188 171.039C609.823 166.422 616.169 163.103 622.227 161.083C628.862 158.485 635.642 157.042 642.565 156.754C649.489 156.177 655.691 156.754 661.172 158.485C664.634 160.217 667.375 161.083 669.394 161.083C671.702 161.083 673.433 159.64 674.587 156.754C676.029 154.445 677.471 150.982 678.914 146.365C680.356 141.458 682.087 137.274 684.106 133.811L693.626 105.673C696.8 97.881 700.261 89.6561 704.012 80.9983C707.762 72.3405 712.233 61.8069 717.426 49.3974C722.33 40.1625 726.369 34.8235 729.542 33.3805C732.716 31.649 736.322 32.8034 740.36 36.8437C743.534 40.5953 744.687 44.9242 743.822 49.8303C742.957 54.4478 740.36 61.9512 736.033 72.3405C734.014 75.515 732.283 78.5453 730.84 81.4312C729.398 84.0285 727.379 88.2131 724.782 93.985C721.032 102.931 717.57 111.012 714.397 118.227C711.224 125.153 707.906 133.089 704.444 142.036C703.29 146.653 701.704 151.992 699.684 158.053C697.954 164.113 696.511 169.596 695.357 174.502C694.492 179.12 693.482 183.449 692.328 187.489C691.463 191.241 690.453 193.117 689.299 193.117C686.991 195.714 684.828 200.331 682.808 206.969C680.789 213.318 679.058 219.956 677.616 226.882C676.462 233.808 675.452 239.58 674.587 244.197C674.01 247.66 673.577 252.134 673.288 257.617C673 263.1 672.856 268.439 672.856 273.634C672.856 278.54 672.856 282.003 672.856 284.023C672.856 290.372 672.711 294.412 672.423 296.144C672.134 297.876 670.981 298.741 668.961 298.741ZM576.792 271.469C582.85 271.469 589.196 268.872 595.831 263.677C602.755 258.483 609.678 252.711 616.602 246.362C620.929 242.322 625.545 236.983 630.449 230.345C635.642 223.707 640.546 217.07 645.162 210.432C650.066 203.794 653.96 198.023 656.845 193.117C659.73 187.922 661.172 184.747 661.172 183.593C661.172 182.15 659.874 181.14 657.278 180.563C654.681 179.986 651.652 179.697 648.191 179.697C645.017 179.408 642.421 179.553 640.402 180.13C634.055 181.573 627.708 184.459 621.362 188.788C615.304 193.116 608.669 199.61 601.457 208.268C593.956 217.503 587.754 227.026 582.85 236.838C578.234 246.65 575.349 254.875 574.195 261.513C573.041 268.151 573.907 271.469 576.792 271.469Z" fill="black"/>
<path d="M754.89 288.785C751.429 289.362 747.678 288.785 743.639 287.053C739.601 285.322 735.995 282.869 732.821 279.694C729.937 276.52 728.061 273.201 727.196 269.738C726.042 263.677 726.763 256.174 729.36 247.228C732.245 237.993 736.283 228.325 741.476 218.224C746.957 207.835 753.015 197.878 759.65 188.355C766.574 178.831 773.642 170.606 780.854 163.68C788.354 156.465 795.278 151.559 801.624 148.962C804.797 146.942 807.25 145.643 808.98 145.066C811 144.2 813.019 144.056 815.039 144.633C817.346 145.21 820.664 146.653 824.991 148.962C829.03 150.116 832.059 151.415 834.078 152.858C836.098 154.301 838.694 157.187 841.867 161.516C844.175 165.845 845.906 170.173 847.06 174.502C848.214 178.831 849.224 183.737 850.089 189.221C852.397 196.435 853.262 201.197 852.685 203.506C852.108 205.526 851.243 207.113 850.089 208.268C847.781 211.154 847.204 212.596 848.358 212.596C848.358 212.596 848.214 213.174 847.925 214.328C847.925 215.194 847.348 216.637 846.194 218.657C844.175 225.006 842.589 231.644 841.435 238.57C840.569 245.207 840.713 250.691 841.867 255.02C844.175 261.369 848.358 265.12 854.416 266.275C860.474 267.429 866.677 264.832 873.023 258.483C876.197 256.174 879.226 254.154 882.11 252.422C884.995 250.402 886.438 250.546 886.438 252.855C886.438 252.855 886.87 253.288 887.736 254.154C888.601 254.731 889.611 255.02 890.765 255.02C892.207 255.02 893.073 255.597 893.361 256.751C893.938 257.906 893.938 259.493 893.361 261.513C893.073 263.244 892.207 265.265 890.765 267.573C886.438 271.902 884.274 274.788 884.274 276.231C884.274 276.231 883.697 276.808 882.543 277.963C881.678 278.828 880.091 280.271 877.783 282.292C872.59 285.466 865.955 287.053 857.878 287.053C850.089 287.053 844.031 285.466 839.704 282.292C835.376 279.117 831.338 274.788 827.587 269.305C824.126 263.822 821.818 259.06 820.664 255.02L818.5 250.691L805.951 258.916C802.778 262.09 799.316 265.12 795.566 268.006C792.104 270.892 789.796 272.912 788.643 274.067C787.777 275.221 786.767 276.231 785.613 277.097C784.748 277.963 783.738 278.396 782.584 278.396C781.431 278.396 780.421 278.396 779.555 278.396C778.69 278.396 778.257 278.396 778.257 278.396C778.257 279.55 776.815 280.993 773.93 282.724C771.334 284.456 768.16 285.899 764.41 287.053C760.948 288.208 757.775 288.785 754.89 288.785ZM750.563 265.409C752.294 265.409 755.323 264.11 759.65 261.513C764.266 258.627 769.314 255.308 774.795 251.556C780.565 247.805 785.613 244.053 789.941 240.301C794.556 236.55 797.73 233.664 799.461 231.644C800.614 230.489 802.49 228.613 805.086 226.016C807.682 223.13 809.99 220.677 812.009 218.657C818.645 211.154 823.26 202.929 825.857 193.982C828.453 184.747 828.164 177.532 824.991 172.338C823.837 169.163 822.395 167.432 820.664 167.143C818.933 166.855 815.327 167.865 809.846 170.173C806.384 172.194 802.057 176.09 796.864 181.861C791.96 187.345 786.623 193.838 780.854 201.341C775.372 208.556 770.18 216.06 765.276 223.852C760.371 231.644 756.333 238.858 753.159 245.496C749.986 252.134 748.399 257.328 748.399 261.08C748.399 262.234 748.688 263.244 749.265 264.11C750.13 264.976 750.563 265.409 750.563 265.409Z" fill="black"/>
<path d="M912.901 293.114C906.843 290.516 902.804 287.342 900.785 283.59C898.766 279.55 899.198 274.211 902.083 267.573C905.257 260.647 911.459 251.845 920.69 241.167C930.21 230.201 943.336 216.348 960.068 199.61C969.011 190.663 976.079 182.294 981.271 174.502C986.464 166.422 989.06 161.516 989.06 159.784C975.502 159.495 961.222 159.928 946.221 161.083C935.547 161.949 928.046 161.66 923.719 160.217C919.392 158.774 916.796 156.032 915.93 151.992C913.622 148.529 913.334 145.499 915.065 142.901C917.084 140.304 919.825 138.284 923.287 136.841C927.037 135.398 930.21 134.677 932.806 134.677C933.96 133.811 937.278 133.378 942.759 133.378C948.529 133.378 955.164 133.666 962.664 134.244C970.165 134.532 977.088 135.109 983.435 135.975C989.781 136.552 994.109 137.274 996.417 138.14C999.878 139.005 1003.48 140.593 1007.23 142.901C1010.98 144.922 1014.01 147.519 1016.32 150.693C1018.92 153.868 1020.22 157.475 1020.22 161.516C1020.22 164.69 1018.2 169.163 1014.16 174.935C1010.12 180.418 1006.51 184.747 1003.34 187.922C995.84 196.002 987.906 204.372 979.54 213.029C971.463 221.687 963.53 230.201 955.741 238.57C951.125 243.476 946.221 248.671 941.028 254.154C935.835 259.348 932.951 263.966 932.374 268.006C933.239 269.449 935.114 270.315 937.999 270.604C941.172 270.892 946.077 270.604 952.712 269.738C959.347 268.583 968.578 267.14 980.406 265.409C991.368 261.657 1000.17 260.07 1006.8 260.647C1013.44 261.224 1017.04 263.389 1017.62 267.14C1017.33 268.583 1016.18 270.748 1014.16 273.634C1012.14 276.231 1010.12 278.54 1008.1 280.56C1006.08 282.58 1004.64 283.59 1003.77 283.59C1003.77 283.59 1002.04 284.023 998.58 284.889C995.118 285.755 990.935 286.765 986.031 287.919C981.416 289.074 976.8 290.228 972.184 291.382C959.779 294.557 950.115 296.721 943.192 297.876C936.268 299.03 930.643 299.174 926.316 298.308C922.277 297.443 917.805 295.711 912.901 293.114Z" fill="black"/>
<path d="M1118.2 287.919C1112.14 293.114 1105.07 296.144 1096.99 297.01C1089.2 297.876 1081.56 296.721 1074.06 293.547C1066.56 290.084 1060.36 284.889 1055.45 277.963C1050.55 271.614 1047.38 264.399 1045.93 256.318C1044.49 247.949 1044.35 237.127 1045.5 223.852C1046.37 212.596 1049.97 201.341 1056.32 190.086C1062.66 178.543 1070.31 168.298 1079.25 159.351C1088.48 150.405 1097.57 144.2 1106.51 140.737C1110.84 137.851 1114.45 136.552 1117.33 136.841C1120.51 136.841 1125.26 137.13 1131.61 137.707C1138.25 138.573 1143.15 139.871 1146.32 141.603C1149.79 143.334 1152.53 145.643 1154.55 148.529C1158.87 152.858 1161.76 157.187 1163.2 161.516C1164.64 165.556 1165.36 169.596 1165.36 173.637C1164.21 179.986 1159.88 187.778 1152.38 197.013C1145.17 205.959 1135.65 213.318 1123.82 219.09C1117.48 221.11 1110.55 221.976 1103.05 221.687C1095.55 221.399 1089.35 219.523 1084.44 216.06C1078.96 213.751 1075.36 214.184 1073.63 217.358C1071.9 220.244 1070.31 227.459 1068.87 239.003C1067.71 249.969 1068.58 258.05 1071.46 263.244C1074.35 268.151 1078.24 271.036 1083.15 271.902C1088.92 273.057 1093.39 273.922 1096.56 274.5C1100.02 274.788 1104.21 273.49 1109.11 270.604C1113.73 267.718 1116.61 266.13 1117.76 265.842C1118.92 265.265 1119.78 264.687 1120.36 264.11C1121.23 263.244 1123.1 261.369 1125.99 258.483C1128.01 256.463 1129.59 255.02 1130.75 254.154C1131.9 252.999 1133.2 252.422 1134.64 252.422C1136.08 252.422 1137.38 253.144 1138.54 254.587C1139.69 255.741 1140.84 256.607 1142 257.184C1144.88 257.184 1145.46 258.916 1143.73 262.379C1142.29 265.842 1139.26 270.026 1134.64 274.932C1130.02 279.55 1124.54 283.879 1118.2 287.919ZM1117.76 196.147C1120.94 194.704 1124.26 192.684 1127.72 190.086C1131.18 187.2 1134.06 184.17 1136.37 180.996C1138.97 177.532 1140.27 174.647 1140.27 172.338C1140.27 168.298 1138.39 164.979 1134.64 162.381C1130.89 159.495 1125.26 159.063 1117.76 161.083C1114.59 161.949 1110.99 164.113 1106.95 167.576C1102.91 170.751 1099.01 174.358 1095.26 178.398C1091.8 182.439 1088.92 186.046 1086.61 189.221C1084.59 192.395 1083.87 194.271 1084.44 194.848C1085.31 196.291 1087.76 197.445 1091.8 198.311C1095.84 198.888 1100.31 199.033 1105.22 198.744C1110.41 198.455 1114.59 197.59 1117.76 196.147Z" fill="black"/>
<path d="M42.6034 339C42.6034 339 42.1707 338.711 41.3052 338.134C40.4398 337.846 39.2859 337.557 37.8435 337.268C36.6895 336.98 35.2471 336.836 33.5163 336.836C28.9006 335.681 25.583 333.084 23.5637 329.044C21.5443 325.292 21.1116 321.107 22.2655 316.49C23.4194 315.335 24.2849 312.882 24.8618 309.131C25.4388 305.379 25.7273 302.349 25.7273 300.04C26.8812 297.731 27.6024 296.144 27.8909 295.278C28.1794 294.124 28.9006 291.238 30.0545 286.62C30.9199 281.714 32.3623 274.932 34.3817 266.275C36.6895 257.328 39.1416 247.805 41.738 237.704C44.6228 227.603 47.3633 217.935 49.9597 208.7C52.556 199.466 54.8639 191.674 56.8832 185.324C59.1911 178.975 60.7777 175.368 61.6432 174.502C61.6432 174.502 61.6432 174.069 61.6432 173.204C61.6432 172.049 61.6432 170.895 61.6432 169.741C61.6432 169.741 61.7874 168.442 62.0759 165.845C62.6528 162.959 64.0952 159.784 66.4031 156.321C67.557 153.146 68.5667 149.683 69.4322 145.932C70.2976 142.18 70.7303 139.727 70.7303 138.573C71.8842 137.13 73.4709 133.666 75.4903 128.183C77.7981 122.411 79.9617 116.784 81.9811 111.301C83.712 106.683 85.5871 101.777 87.6065 96.5823C89.9143 91.3876 91.7894 86.9144 93.2318 83.1627C94.9627 79.411 95.8282 77.5352 95.8282 77.5352C95.8282 76.3808 95.8282 75.8036 95.8282 75.8036C95.8282 75.515 95.8282 75.3708 95.8282 75.3708C96.9821 74.2164 99.7227 68.4445 104.05 58.0552C108.666 47.3773 114.868 33.6691 122.657 16.9308C123.811 14.622 125.253 12.0247 126.984 9.13877C128.715 6.25285 129.58 4.2327 129.58 3.07833C131.023 0.769587 133.042 -0.240491 135.639 0.0480975C138.235 0.0480975 140.831 0.913881 143.428 2.64545C146.312 4.377 148.476 6.83003 149.918 10.0045L154.246 16.9308L138.668 48.0987C134.052 56.1793 130.157 63.5384 126.984 70.1761C124.099 76.8137 122.657 80.7097 122.657 81.8641C122.657 81.8641 121.791 84.1728 120.061 88.7903C118.33 93.4078 116.31 98.891 114.002 105.24C111.695 111.589 109.675 117.361 107.944 122.556C104.771 131.502 101.742 138.861 98.8572 144.633C96.2609 150.405 94.9627 153.868 94.9627 155.022C94.9627 154.445 98.136 154.012 104.483 153.724C110.829 153.435 118.907 153.291 128.715 153.291C138.523 153.291 148.476 153.291 158.573 153.291C168.958 153.002 178.045 152.858 185.834 152.858C193.912 152.569 199.393 152.136 202.278 151.559L224.779 149.395L239.492 104.807C241.8 96.7266 244.829 86.9144 248.579 75.3708C252.329 63.827 255.647 54.0149 258.531 45.9343C263.147 32.6591 266.753 24.4342 269.35 21.2597C271.946 18.0851 274.975 16.4979 278.437 16.4979C279.302 16.4979 280.456 16.7865 281.898 17.3637C283.629 17.6522 285.216 18.3737 286.658 19.5281C288.389 20.3939 289.543 21.6925 290.12 23.4241C293.582 26.5986 295.169 30.206 294.88 34.2463C294.88 38.2866 292.572 43.6256 287.957 50.2632C283.341 58.0552 279.446 66.5687 276.273 75.8036C273.388 84.75 270.792 92.1091 268.484 97.881C268.484 101.344 268.051 104.23 267.186 106.539C266.32 108.559 265.311 110.146 264.157 111.301C263.58 111.878 262.426 114.042 260.695 117.794C258.964 121.546 257.378 125.297 255.935 129.049C254.493 132.801 253.772 135.109 253.772 135.975C253.772 137.995 253.339 140.448 252.473 143.334C251.608 146.22 250.598 148.24 249.444 149.395C248.867 151.126 247.569 155.455 245.55 162.381C243.53 169.308 241.223 177.533 238.626 187.056C236.03 196.291 233.289 205.382 230.405 214.328C227.52 222.986 224.923 230.201 222.616 235.972C222.616 237.993 221.894 240.59 220.452 243.764C219.01 246.65 218.288 249.248 218.288 251.556C217.134 255.02 215.692 259.348 213.961 264.543C212.23 269.738 211.365 273.057 211.365 274.5C209.922 281.137 208.336 287.919 206.605 294.845C205.163 301.772 203.864 307.688 202.71 312.594C201.845 317.788 201.412 320.819 201.412 321.684C200.258 322.839 198.527 322.983 196.22 322.117C193.912 321.252 191.171 320.242 187.998 319.087C182.517 315.913 179.199 312.45 178.045 308.698C177.18 305.235 178.334 300.184 181.507 293.547C182.949 291.238 184.68 285.61 186.7 276.664C189.008 267.429 191.315 258.338 193.623 249.392C195.354 245.063 197.229 239.291 199.249 232.076C201.268 224.573 203.287 217.07 205.307 209.566C207.326 201.774 209.057 195.281 210.499 190.086C211.942 184.603 212.952 181.573 213.528 180.996C213.528 179.841 213.528 178.831 213.528 177.965C213.528 177.1 213.528 176.667 213.528 176.667C212.952 176.09 209.345 175.657 202.71 175.368C196.075 174.791 187.854 174.647 178.045 174.935C168.237 174.935 157.996 175.224 147.322 175.801C136.937 176.09 127.561 176.811 119.195 177.965C116.022 177.965 112.416 177.965 108.377 177.965C104.338 177.965 101.165 177.965 98.8572 177.965C95.6839 177.965 92.9434 177.965 90.6355 177.965C88.6161 177.965 87.6065 177.965 87.6065 177.965C87.318 178.831 86.3083 181.861 84.5774 187.056C82.8465 192.251 80.8272 198.6 78.5193 206.103C76.2115 213.318 73.7594 220.821 71.163 228.613C68.8552 236.117 66.8358 243.043 65.1049 249.392C63.6625 255.453 62.6528 259.781 62.0759 262.379C60.922 267.573 59.3353 274.067 57.3159 281.859C55.5851 289.651 53.5657 297.587 51.2578 305.668C49.2385 314.037 47.3634 321.252 45.6325 327.312C44.1901 333.372 43.1804 337.268 42.6034 339Z" fill="#0704DE"/>
<path d="M303.308 296.577C299.558 296.577 296.529 295.855 294.221 294.412C292.202 292.97 289.605 290.949 286.432 288.352C280.951 282.58 277.056 277.097 274.748 271.902C272.441 266.419 271.719 261.224 272.585 256.318C273.45 254.01 273.739 251.845 273.45 249.825C273.45 247.516 273.45 246.362 273.45 246.362C272.008 244.919 271.575 244.053 272.152 243.764C272.729 243.187 273.306 242.322 273.883 241.167C275.614 241.167 276.191 239.58 275.614 236.405C275.037 234.097 276.191 229.046 279.076 221.254C281.96 213.462 285.566 206.103 289.894 199.177C291.625 196.291 294.221 192.539 297.683 187.922C301.144 183.016 304.895 178.254 308.933 173.637C313.261 168.73 317.155 164.834 320.617 161.949C327.829 155.888 334.176 151.415 339.657 148.529C345.138 145.643 351.052 143.479 357.398 142.036C363.745 140.593 368.072 139.871 370.38 139.871C372.976 139.871 376.438 142.18 380.765 146.797C387.4 149.683 392.16 153.146 395.045 157.187C398.218 161.227 400.238 167.143 401.103 174.935C401.969 183.593 401.247 193.549 398.939 204.805C396.92 215.771 390.141 229.479 378.602 245.929C371.39 256.318 364.755 264.11 358.696 269.305C352.638 274.211 345.426 279.117 337.06 284.023C331.002 288.063 325.521 291.094 320.617 293.114C315.713 294.845 309.943 296 303.308 296.577ZM344.849 250.691C351.773 242.899 357.254 235.54 361.293 228.613C365.62 221.687 369.659 212.885 373.409 202.207C374.563 199.033 375.284 195.137 375.573 190.519C375.861 185.613 375.717 181.14 375.14 177.1C374.851 172.771 373.842 170.318 372.111 169.741C368.649 167.72 364.466 167.143 359.562 168.009C354.658 168.586 349.321 171.328 343.551 176.234C334.608 183.737 326.819 193.116 320.184 204.372C313.549 215.338 307.058 227.892 300.712 242.033C296.384 252.422 295.375 260.791 297.683 267.14C300.279 273.201 305.616 275.365 313.693 273.634C322.059 271.614 332.445 263.966 344.849 250.691Z" fill="#0704DE"/>
<path d="M438.983 303.07C433.502 304.513 429.031 303.359 425.569 299.607C422.396 295.855 420.52 290.084 419.943 282.292C419.366 274.5 420.232 265.265 422.54 254.587C423.982 251.124 425.136 247.805 426.002 244.63C426.867 241.167 427.3 238.426 427.3 236.405C427.877 233.519 429.031 229.335 430.761 223.852C432.492 218.08 434.367 212.164 436.387 206.103C438.406 200.043 440.281 194.704 442.012 190.086C444.032 185.18 445.33 182.15 445.907 180.996C447.061 180.996 448.07 179.986 448.936 177.965C449.801 175.945 450.234 173.925 450.234 171.905C450.234 169.596 450.667 166.999 451.532 164.113C452.686 161.227 453.84 159.207 454.994 158.053C454.994 156.61 455.282 155.022 455.859 153.291C456.725 151.271 457.158 149.683 457.158 148.529C457.158 147.375 457.446 146.22 458.023 145.066C458.888 143.911 459.321 142.757 459.321 141.603C461.34 137.851 463.937 131.935 467.11 123.854C470.572 115.485 474.178 106.25 477.928 96.1494C481.967 86.0487 485.717 76.0922 489.179 66.2801C492.641 56.4679 495.381 48.2431 497.401 41.6054C499.708 34.6792 500.862 30.4946 500.862 29.0517C500.862 26.7429 501.439 25.0114 502.593 23.857C503.747 22.7026 505.478 22.1254 507.786 22.1254C508.651 21.2597 509.661 20.6825 510.815 20.3939C512.257 20.1053 513.556 19.961 514.709 19.961C514.709 19.961 515.286 20.5382 516.44 21.6925C517.594 22.8469 519.325 24.5785 521.633 26.8872C523.941 28.9074 525.239 31.2161 525.528 33.8134C526.104 36.4108 526.393 39.441 526.393 42.9041C526.393 46.6558 525.96 49.9746 525.095 52.8605C524.229 55.7465 522.498 59.9311 519.902 65.4143C517.306 70.8976 513.267 79.411 507.786 90.9547C505.478 96.7266 503.026 102.21 500.43 107.405C497.833 112.311 496.535 115.341 496.535 116.495C496.535 117.65 495.958 119.381 494.804 121.69C493.939 123.999 492.929 126.885 491.775 130.348C490.621 132.656 489.035 136.119 487.015 140.737C484.996 145.066 482.832 149.828 480.524 155.022C478.505 159.928 476.774 164.257 475.332 168.009C473.889 171.472 473.168 173.492 473.168 174.069C473.168 175.224 473.024 176.378 472.735 177.533C472.735 178.687 472.158 179.841 471.005 180.996C469.851 180.996 469.129 181.861 468.841 183.593C468.841 185.036 468.841 185.757 468.841 185.757C468.841 188.643 466.533 196.291 461.917 208.7C457.302 224.573 452.974 239.147 448.936 252.422C445.185 265.698 443.31 276.375 443.31 284.456C443.31 291.382 443.166 296 442.878 298.308C442.589 300.329 441.291 301.916 438.983 303.07Z" fill="#0704DE"/>
<path d="M520.744 289.651C516.417 289.074 512.666 286.043 509.493 280.56C506.608 274.788 504.877 269.594 504.3 264.976C504.589 262.667 504.877 259.348 505.166 255.02C505.743 250.691 506.32 246.218 506.897 241.6C508.051 236.117 509.637 229.479 511.657 221.687C513.676 213.607 515.695 205.526 517.715 197.445C520.023 189.365 522.042 182.439 523.773 176.667C525.504 170.895 526.658 167.432 527.235 166.277C528.677 163.969 530.985 163.391 534.158 164.546C537.332 165.7 539.928 167.432 541.947 169.741C543.678 172.049 544.688 174.791 544.976 177.965C545.553 181.14 545.121 185.757 543.678 191.818C542.524 197.878 540.216 206.825 536.755 218.657C533.581 230.201 531.129 239.58 529.398 246.795C527.956 253.721 527.379 261.08 527.667 268.872C526.513 278.684 525.648 284.745 525.071 287.053C524.494 289.074 523.052 289.939 520.744 289.651ZM570.507 116.928C569.353 117.794 568.199 118.227 567.045 118.227C566.18 117.938 564.593 117.072 562.285 115.629C560.266 115.341 557.669 114.042 554.496 111.733C551.611 109.136 549.015 106.539 546.707 103.941C544.688 101.055 543.678 99.3239 543.678 98.7467C543.39 95.8608 543.534 92.2534 544.111 87.9245C544.976 83.307 546.563 79.2668 548.871 75.8036C551.179 72.0519 554.496 70.0318 558.823 69.7432C559.977 69.7432 560.987 69.8875 561.852 70.1761C562.718 70.4647 565.314 71.4748 569.641 73.2063C571.949 77.5352 574.257 82.4413 576.565 87.9245C578.873 93.1192 579.882 98.3139 579.594 103.509C579.306 108.415 576.276 112.888 570.507 116.928Z" fill="#0704DE"/>
<path d="M690.597 298.741C689.443 298.741 687.712 298.597 685.405 298.308C683.385 297.731 681.654 296.433 680.212 294.412C675.885 289.218 673.144 284.889 671.99 281.426C670.836 277.963 670.692 272.912 671.558 266.275C672.134 261.946 672.423 258.194 672.423 255.02C672.711 251.556 673 248.671 673.288 246.362C672.134 245.207 669.971 246.073 666.798 248.959C663.913 251.556 659.874 254.875 654.681 258.916C644.873 270.171 636.074 278.828 628.285 284.889C620.785 290.661 614.006 294.557 607.947 296.577C601.889 298.308 596.12 298.886 590.639 298.308C585.734 297.731 581.84 295.711 578.955 292.248C576.07 288.496 574.195 283.735 573.33 277.963C572.753 272.191 572.753 265.986 573.33 259.348C574.484 249.825 576.503 240.734 579.388 232.076C582.561 223.419 587.61 213.751 594.533 203.073C597.706 197.301 601.889 191.674 607.082 186.19C612.563 180.418 618.477 175.368 624.824 171.039C631.459 166.422 637.805 163.103 643.863 161.083C650.498 158.485 657.278 157.042 664.201 156.754C671.125 156.177 677.327 156.754 682.808 158.485C686.27 160.217 689.011 161.083 691.03 161.083C693.338 161.083 695.069 159.64 696.223 156.754C697.665 154.445 699.108 150.982 700.55 146.365C701.992 141.458 703.723 137.274 705.743 133.811L715.262 105.673C718.436 97.881 721.898 89.6561 725.648 80.9983C729.398 72.3405 733.869 61.8069 739.062 49.3974C743.966 40.1625 748.005 34.8235 751.178 33.3805C754.352 31.649 757.958 32.8034 761.996 36.8437C765.17 40.5953 766.324 44.9242 765.458 49.8303C764.593 54.4478 761.996 61.9512 757.669 72.3405C755.65 75.515 753.919 78.5453 752.476 81.4312C751.034 84.0285 749.015 88.2131 746.418 93.985C742.668 102.931 739.206 111.012 736.033 118.227C732.86 125.153 729.542 133.089 726.081 142.036C724.927 146.653 723.34 151.992 721.32 158.053C719.59 164.113 718.147 169.596 716.993 174.502C716.128 179.12 715.118 183.449 713.964 187.489C713.099 191.241 712.089 193.117 710.935 193.117C708.627 195.714 706.464 200.331 704.444 206.969C702.425 213.318 700.694 219.956 699.252 226.882C698.098 233.808 697.088 239.58 696.223 244.197C695.646 247.66 695.213 252.134 694.924 257.617C694.636 263.1 694.492 268.439 694.492 273.634C694.492 278.54 694.492 282.003 694.492 284.023C694.492 290.372 694.347 294.412 694.059 296.144C693.771 297.876 692.617 298.741 690.597 298.741ZM598.428 271.469C604.486 271.469 610.832 268.872 617.467 263.677C624.391 258.483 631.314 252.711 638.238 246.362C642.565 242.322 647.181 236.983 652.085 230.345C657.278 223.707 662.182 217.07 666.798 210.432C671.702 203.794 675.596 198.023 678.481 193.117C681.366 187.922 682.808 184.747 682.808 183.593C682.808 182.15 681.51 181.14 678.914 180.563C676.317 179.986 673.288 179.697 669.827 179.697C666.653 179.408 664.057 179.553 662.038 180.13C655.691 181.573 649.344 184.459 642.998 188.788C636.94 193.116 630.305 199.61 623.093 208.268C615.592 217.503 609.39 227.026 604.486 236.838C599.87 246.65 596.985 254.875 595.831 261.513C594.677 268.151 595.543 271.469 598.428 271.469Z" fill="#0704DE"/>
<path d="M776.526 288.785C773.065 289.362 769.314 288.785 765.276 287.053C761.237 285.322 757.631 282.869 754.458 279.694C751.573 276.52 749.698 273.201 748.832 269.738C747.678 263.677 748.399 256.174 750.996 247.228C753.881 237.993 757.919 228.325 763.112 218.224C768.593 207.835 774.651 197.878 781.286 188.355C788.21 178.831 795.278 170.606 802.49 163.68C809.99 156.465 816.914 151.559 823.26 148.962C826.434 146.942 828.886 145.643 830.617 145.066C832.636 144.2 834.655 144.056 836.675 144.633C838.982 145.21 842.3 146.653 846.627 148.962C850.666 150.116 853.695 151.415 855.714 152.858C857.734 154.301 860.33 157.187 863.503 161.516C865.811 165.845 867.542 170.173 868.696 174.502C869.85 178.831 870.86 183.737 871.725 189.221C874.033 196.435 874.898 201.197 874.321 203.506C873.744 205.526 872.879 207.113 871.725 208.268C869.417 211.154 868.84 212.596 869.994 212.596C869.994 212.596 869.85 213.174 869.562 214.328C869.562 215.194 868.985 216.637 867.831 218.657C865.811 225.006 864.225 231.644 863.071 238.57C862.205 245.207 862.349 250.691 863.503 255.02C865.811 261.369 869.994 265.12 876.052 266.275C882.11 267.429 888.313 264.832 894.659 258.483C897.833 256.174 900.862 254.154 903.746 252.422C906.631 250.402 908.074 250.546 908.074 252.855C908.074 252.855 908.506 253.288 909.372 254.154C910.237 254.731 911.247 255.02 912.401 255.02C913.843 255.02 914.709 255.597 914.997 256.751C915.574 257.906 915.574 259.493 914.997 261.513C914.709 263.244 913.843 265.265 912.401 267.573C908.074 271.902 905.91 274.788 905.91 276.231C905.91 276.231 905.333 276.808 904.179 277.963C903.314 278.828 901.727 280.271 899.419 282.292C894.227 285.466 887.592 287.053 879.514 287.053C871.725 287.053 865.667 285.466 861.34 282.292C857.013 279.117 852.974 274.788 849.224 269.305C845.762 263.822 843.454 259.06 842.3 255.02L840.136 250.691L827.587 258.916C824.414 262.09 820.952 265.12 817.202 268.006C813.74 270.892 811.432 272.912 810.279 274.067C809.413 275.221 808.403 276.231 807.25 277.097C806.384 277.963 805.374 278.396 804.221 278.396C803.067 278.396 802.057 278.396 801.191 278.396C800.326 278.396 799.893 278.396 799.893 278.396C799.893 279.55 798.451 280.993 795.566 282.724C792.97 284.456 789.796 285.899 786.046 287.053C782.584 288.208 779.411 288.785 776.526 288.785ZM772.199 265.409C773.93 265.409 776.959 264.11 781.286 261.513C785.902 258.627 790.95 255.308 796.431 251.556C802.201 247.805 807.25 244.053 811.577 240.301C816.193 236.55 819.366 233.664 821.097 231.644C822.251 230.489 824.126 228.613 826.722 226.016C829.318 223.13 831.626 220.677 833.646 218.657C840.281 211.154 844.896 202.929 847.493 193.982C850.089 184.747 849.8 177.532 846.627 172.338C845.473 169.163 844.031 167.432 842.3 167.143C840.569 166.855 836.963 167.865 831.482 170.173C828.02 172.194 823.693 176.09 818.5 181.861C813.596 187.345 808.259 193.838 802.49 201.341C797.008 208.556 791.816 216.06 786.912 223.852C782.007 231.644 777.969 238.858 774.795 245.496C771.622 252.134 770.035 257.328 770.035 261.08C770.035 262.234 770.324 263.244 770.901 264.11C771.766 264.976 772.199 265.409 772.199 265.409Z" fill="#0704DE"/>
<path d="M934.537 293.114C928.479 290.516 924.44 287.342 922.421 283.59C920.402 279.55 920.834 274.211 923.719 267.573C926.893 260.647 933.095 251.845 942.326 241.167C951.846 230.201 964.972 216.348 981.704 199.61C990.647 190.663 997.715 182.294 1002.91 174.502C1008.1 166.422 1010.7 161.516 1010.7 159.784C997.138 159.495 982.858 159.928 967.857 161.083C957.183 161.949 949.683 161.66 945.355 160.217C941.028 158.774 938.432 156.032 937.566 151.992C935.259 148.529 934.97 145.499 936.701 142.901C938.72 140.304 941.461 138.284 944.923 136.841C948.673 135.398 951.846 134.677 954.442 134.677C955.596 133.811 958.914 133.378 964.395 133.378C970.165 133.378 976.8 133.666 984.3 134.244C991.801 134.532 998.724 135.109 1005.07 135.975C1011.42 136.552 1015.74 137.274 1018.05 138.14C1021.51 139.005 1025.12 140.593 1028.87 142.901C1032.62 144.922 1035.65 147.519 1037.96 150.693C1040.55 153.868 1041.85 157.475 1041.85 161.516C1041.85 164.69 1039.83 169.163 1035.79 174.935C1031.76 180.418 1028.15 184.747 1024.98 187.922C1017.48 196.002 1009.54 204.372 1001.18 213.029C993.099 221.687 985.166 230.201 977.377 238.57C972.761 243.476 967.857 248.671 962.664 254.154C957.472 259.348 954.587 263.966 954.01 268.006C954.875 269.449 956.75 270.315 959.635 270.604C962.808 270.892 967.713 270.604 974.348 269.738C980.983 268.583 990.214 267.14 1002.04 265.409C1013 261.657 1021.8 260.07 1028.44 260.647C1035.07 261.224 1038.68 263.389 1039.26 267.14C1038.97 268.583 1037.81 270.748 1035.79 273.634C1033.77 276.231 1031.76 278.54 1029.74 280.56C1027.72 282.58 1026.27 283.59 1025.41 283.59C1025.41 283.59 1023.68 284.023 1020.22 284.889C1016.75 285.755 1012.57 286.765 1007.67 287.919C1003.05 289.074 998.436 290.228 993.82 291.382C981.416 294.557 971.751 296.721 964.828 297.876C957.904 299.03 952.279 299.174 947.952 298.308C943.913 297.443 939.442 295.711 934.537 293.114Z" fill="#0704DE"/>
<path d="M1139.83 287.919C1133.78 293.114 1126.71 296.144 1118.63 297.01C1110.84 297.876 1103.2 296.721 1095.7 293.547C1088.2 290.084 1081.99 284.889 1077.09 277.963C1072.18 271.614 1069.01 264.399 1067.57 256.318C1066.13 247.949 1065.98 237.127 1067.14 223.852C1068 212.596 1071.61 201.341 1077.95 190.086C1084.3 178.543 1091.95 168.298 1100.89 159.351C1110.12 150.405 1119.21 144.2 1128.15 140.737C1132.48 137.851 1136.08 136.552 1138.97 136.841C1142.14 136.841 1146.9 137.13 1153.25 137.707C1159.88 138.573 1164.79 139.871 1167.96 141.603C1171.42 143.334 1174.16 145.643 1176.18 148.529C1180.51 152.858 1183.39 157.187 1184.84 161.516C1186.28 165.556 1187 169.596 1187 173.637C1185.85 179.986 1181.52 187.778 1174.02 197.013C1166.81 205.959 1157.29 213.318 1145.46 219.09C1139.11 221.11 1132.19 221.976 1124.69 221.687C1117.19 221.399 1110.99 219.523 1106.08 216.06C1100.6 213.751 1096.99 214.184 1095.26 217.358C1093.53 220.244 1091.95 227.459 1090.5 239.003C1089.35 249.969 1090.21 258.05 1093.1 263.244C1095.98 268.151 1099.88 271.036 1104.78 271.902C1110.55 273.057 1115.02 273.922 1118.2 274.5C1121.66 274.788 1125.84 273.49 1130.75 270.604C1135.36 267.718 1138.25 266.13 1139.4 265.842C1140.55 265.265 1141.42 264.687 1142 264.11C1142.86 263.244 1144.74 261.369 1147.62 258.483C1149.64 256.463 1151.23 255.02 1152.38 254.154C1153.54 252.999 1154.83 252.422 1156.28 252.422C1157.72 252.422 1159.02 253.144 1160.17 254.587C1161.33 255.741 1162.48 256.607 1163.63 257.184C1166.52 257.184 1167.09 258.916 1165.36 262.379C1163.92 265.842 1160.89 270.026 1156.28 274.932C1151.66 279.55 1146.18 283.879 1139.83 287.919ZM1139.4 196.147C1142.57 194.704 1145.89 192.684 1149.35 190.086C1152.81 187.2 1155.7 184.17 1158.01 180.996C1160.6 177.532 1161.9 174.647 1161.9 172.338C1161.9 168.298 1160.03 164.979 1156.28 162.381C1152.53 159.495 1146.9 159.063 1139.4 161.083C1136.23 161.949 1132.62 164.113 1128.58 167.576C1124.54 170.751 1120.65 174.358 1116.9 178.398C1113.44 182.439 1110.55 186.046 1108.24 189.221C1106.23 192.395 1105.5 194.271 1106.08 194.848C1106.95 196.291 1109.4 197.445 1113.44 198.311C1117.48 198.888 1121.95 199.033 1126.85 198.744C1132.04 198.455 1136.23 197.59 1139.4 196.147Z" fill="#0704DE"/>
</svg>
